<svg width="143" height="32" viewBox="0 0 143 32" fill="none" xmlns="http://www.w3.org/2000/svg">
<path d="M15.8003 31.6007C24.5266 31.6007 31.6007 24.5266 31.6007 15.8003C31.6007 7.07405 24.5266 0 15.8003 0C7.07405 0 0 7.07405 0 15.8003C0 24.5266 7.07405 31.6007 15.8003 31.6007Z" fill="white"/>
<path fill-rule="evenodd" clip-rule="evenodd" d="M20.2458 17.7818L21.4347 18.4711L22.6236 19.1603C22.8993 19.3154 23.0888 19.6255 23.0716 19.9529V22.6925C23.0716 23.0199 22.8993 23.3128 22.6236 23.4851L21.4347 24.1743L20.2458 24.8636C19.9701 25.0359 19.6255 25.0359 19.3325 24.8636L18.1436 24.1743L16.9547 23.4851C16.6791 23.3301 16.4895 23.0199 16.5068 22.6925V20.108L10.9585 16.9031L12.0441 18.5228L10.6829 19.3154C10.4072 19.4877 10.0626 19.4877 9.76964 19.3154L8.58074 18.6261L7.39184 17.9369C7.11615 17.7818 6.94385 17.4889 6.94385 17.1616V14.4047C6.94385 14.0773 7.11615 13.7844 7.39184 13.6121L8.58074 12.9229L9.76964 12.2336C10.0453 12.0613 10.3899 12.0613 10.6829 12.2336L11.8718 12.9229L12.9228 13.5259L16.5068 11.4583V8.89093C16.5068 8.56355 16.6791 8.27064 16.9547 8.09833L18.1436 7.40911L19.3325 6.7199C19.6082 6.54759 19.9528 6.54759 20.2458 6.7199L21.4347 7.40911L22.6236 8.09833C22.8993 8.25341 23.0888 8.56355 23.0716 8.89093V11.6306C23.0716 11.958 22.8993 12.2509 22.6236 12.4232L21.4347 13.1124L20.2458 13.8016C19.9701 13.9739 19.6255 13.9739 19.3325 13.8016L18.1436 13.1124L18.0747 13.0779L19.3325 11.2343L17.1098 12.5266L13.5259 14.5942V17.0237L17.1098 19.0914L18.1609 18.4883L19.3498 17.7991C19.6082 17.6095 19.9701 17.6268 20.2458 17.7818Z" fill="#1A1E22"/>
<path d="M54.5689 18.5227C54.5689 22.21 51.8637 25.2081 48.4693 25.2081C46.4017 25.2081 44.8337 24.2605 43.9033 22.6408V24.9497H41.0085V6.61649H43.9205V14.4563C44.8337 12.8367 46.4017 11.889 48.4866 11.889C51.881 11.8718 54.5689 14.8354 54.5689 18.5227ZM51.7087 18.5227C51.7087 16.3689 50.0028 14.6459 47.8318 14.6459C45.5746 14.6459 43.9033 16.3172 43.9033 18.5227C43.9033 20.7455 45.5746 22.434 47.8318 22.434C50.0201 22.434 51.7087 20.6938 51.7087 18.5227Z" fill="white"/>
<path d="M69.4043 18.5572C69.4043 22.3479 66.4924 25.2082 62.7534 25.2082C59.0143 25.2082 56.1196 22.3479 56.1196 18.5572C56.1196 14.7665 58.9971 11.8718 62.7534 11.8718C66.5096 11.8718 69.4043 14.7493 69.4043 18.5572ZM58.9971 18.5572C58.9971 20.7282 60.6168 22.3996 62.7361 22.3996C64.8555 22.3996 66.5096 20.7282 66.5096 18.5572C66.5096 16.3517 64.8555 14.6804 62.7361 14.6804C60.6168 14.6804 58.9971 16.3517 58.9971 18.5572Z" fill="white"/>
<path d="M75.6074 14.9044V20.0563C75.6074 21.6759 76.6068 22.3307 78.0197 22.3307C78.3299 22.3307 78.6745 22.2962 78.9674 22.2273V24.9325C78.5194 25.0359 77.8646 25.0876 77.3994 25.0876C74.5736 25.0876 72.6783 23.3645 72.6783 20.1079V14.9044H70.2488V12.1302H72.6783V8.70139H75.6074V12.1302H78.9674V14.9044H75.6074Z" fill="white"/>
<path d="M94.8364 18.5572C94.8364 22.2445 92.1312 25.2082 88.7368 25.2082C86.6692 25.2082 85.1012 24.2605 84.1707 22.6408V29.4296H81.2588V12.1303H84.1707V14.4391C85.0839 12.8195 86.6519 11.8718 88.7368 11.8718C92.1312 11.8718 94.8364 14.8527 94.8364 18.5572ZM91.9761 18.5572C91.9761 16.3862 90.2703 14.6459 88.0993 14.6459C85.8421 14.6459 84.1707 16.3173 84.1707 18.5572C84.1707 20.7627 85.8421 22.4341 88.0993 22.4341C90.2703 22.4341 91.9761 20.6938 91.9761 18.5572Z" fill="white"/>
<path d="M104.865 12.0269V14.6976C104.451 14.5942 104.003 14.5081 103.59 14.5081C101.729 14.5081 100.212 15.7831 100.212 18.092V24.9325H97.3005V12.1303H100.212V13.8361C100.971 12.6127 102.142 11.8718 103.676 11.8718C104.055 11.8718 104.468 11.9579 104.865 12.0269Z" fill="white"/>
<path d="M118.097 19.5049H108.276C108.638 21.383 109.947 22.5719 112.015 22.5719C113.583 22.5719 114.824 21.831 115.082 20.7455H118.011C117.546 23.4506 115.099 25.2254 111.963 25.2254C108.224 25.2254 105.312 22.3134 105.312 18.4883C105.312 14.7665 108.224 11.889 111.912 11.889C115.375 11.889 118.166 14.5425 118.166 18.2815C118.166 18.6089 118.149 19.2636 118.097 19.5049ZM114.996 17.0065C114.738 15.5419 113.497 14.5253 111.739 14.5253C110.016 14.5253 108.759 15.4385 108.328 17.0065H114.996Z" fill="white"/>
<path d="M119.752 20.8316H122.56C122.664 21.9516 123.766 22.6925 125.214 22.6925C126.627 22.6925 127.471 22.0895 127.471 21.1935C127.471 18.4366 120.062 20.6766 120.062 15.8003C120.062 13.5776 121.923 11.8718 124.904 11.8718C127.557 11.8718 129.849 13.2847 130.142 15.8865H127.212C127.075 15.025 126.196 14.3185 124.852 14.3185C123.697 14.3185 122.888 14.8182 122.888 15.628C122.888 18.2126 130.331 15.8348 130.331 21.1762C130.331 23.4851 128.212 25.2082 125.386 25.2082C122.198 25.2082 120.01 23.5885 119.752 20.8316Z" fill="white"/>
<path d="M131.71 20.8316H134.518C134.622 21.9516 135.724 22.6925 137.172 22.6925C138.585 22.6925 139.429 22.0895 139.429 21.1935C139.429 18.4366 132.02 20.6766 132.02 15.8003C132.02 13.5776 133.881 11.8718 136.862 11.8718C139.515 11.8718 141.807 13.2847 142.1 15.8865H139.171C139.033 15.025 138.154 14.3185 136.81 14.3185C135.655 14.3185 134.846 14.8182 134.846 15.628C134.846 18.2126 142.289 15.8348 142.289 21.1762C142.289 23.4851 140.17 25.2082 137.344 25.2082C134.174 25.2082 131.985 23.5885 131.71 20.8316Z" fill="white"/>
</svg>
